<mxfile host="app.diagrams.net" modified="2023-07-11T06:47:39.704Z" agent="Mozilla/5.0 (Windows NT 10.0; Win64; x64) AppleWebKit/537.36 (KHTML, like Gecko) Chrome/114.0.0.0 Safari/537.36" etag="tVHr0bYzbJ1_ZO8ImklS" version="21.5.0" type="github">
  <diagram name="Page-1" id="0QLyTCyO84w1juBfAOUN">
    <mxGraphModel dx="3054" dy="595" grid="1" gridSize="10" guides="1" tooltips="1" connect="1" arrows="1" fold="1" page="1" pageScale="1" pageWidth="827" pageHeight="1169" math="0" shadow="0">
      <root>
        <mxCell id="0" />
        <mxCell id="1" parent="0" />
        <mxCell id="F978x5-Za8Gsg4M3BT2W-16" style="edgeStyle=orthogonalEdgeStyle;rounded=0;orthogonalLoop=1;jettySize=auto;html=1;exitX=0.55;exitY=0.95;exitDx=0;exitDy=0;exitPerimeter=0;entryX=0;entryY=0.167;entryDx=0;entryDy=0;entryPerimeter=0;" edge="1" parent="1" source="F978x5-Za8Gsg4M3BT2W-2" target="F978x5-Za8Gsg4M3BT2W-9">
          <mxGeometry relative="1" as="geometry" />
        </mxCell>
        <mxCell id="F978x5-Za8Gsg4M3BT2W-2" value="url" style="ellipse;shape=cloud;whiteSpace=wrap;html=1;" vertex="1" parent="1">
          <mxGeometry x="-1540" y="20" width="90" height="60" as="geometry" />
        </mxCell>
        <mxCell id="F978x5-Za8Gsg4M3BT2W-8" value="page" style="rounded=0;whiteSpace=wrap;html=1;" vertex="1" parent="1">
          <mxGeometry x="-1170" y="200" width="120" height="20" as="geometry" />
        </mxCell>
        <mxCell id="F978x5-Za8Gsg4M3BT2W-15" style="edgeStyle=orthogonalEdgeStyle;rounded=0;orthogonalLoop=1;jettySize=auto;html=1;exitX=0;exitY=0;exitDx=0;exitDy=0;entryX=0.8;entryY=0.8;entryDx=0;entryDy=0;entryPerimeter=0;" edge="1" parent="1" source="F978x5-Za8Gsg4M3BT2W-9" target="F978x5-Za8Gsg4M3BT2W-2">
          <mxGeometry relative="1" as="geometry">
            <mxPoint x="-1440" y="90" as="targetPoint" />
            <Array as="points">
              <mxPoint x="-1460" y="72" />
              <mxPoint x="-1468" y="72" />
            </Array>
          </mxGeometry>
        </mxCell>
        <mxCell id="F978x5-Za8Gsg4M3BT2W-9" value="url Adapter" style="swimlane;fontStyle=0;childLayout=stackLayout;horizontal=1;startSize=30;horizontalStack=0;resizeParent=1;resizeParentMax=0;resizeLast=0;collapsible=1;marginBottom=0;whiteSpace=wrap;html=1;" vertex="1" parent="1">
          <mxGeometry x="-1460" y="210" width="140" height="120" as="geometry" />
        </mxCell>
        <mxCell id="F978x5-Za8Gsg4M3BT2W-10" value="url param" style="text;strokeColor=none;fillColor=none;align=left;verticalAlign=middle;spacingLeft=4;spacingRight=4;overflow=hidden;points=[[0,0.5],[1,0.5]];portConstraint=eastwest;rotatable=0;whiteSpace=wrap;html=1;" vertex="1" parent="F978x5-Za8Gsg4M3BT2W-9">
          <mxGeometry y="30" width="140" height="30" as="geometry" />
        </mxCell>
        <mxCell id="F978x5-Za8Gsg4M3BT2W-11" value="get" style="text;strokeColor=none;fillColor=none;align=left;verticalAlign=middle;spacingLeft=4;spacingRight=4;overflow=hidden;points=[[0,0.5],[1,0.5]];portConstraint=eastwest;rotatable=0;whiteSpace=wrap;html=1;" vertex="1" parent="F978x5-Za8Gsg4M3BT2W-9">
          <mxGeometry y="60" width="140" height="30" as="geometry" />
        </mxCell>
        <mxCell id="F978x5-Za8Gsg4M3BT2W-12" value="set" style="text;strokeColor=none;fillColor=none;align=left;verticalAlign=middle;spacingLeft=4;spacingRight=4;overflow=hidden;points=[[0,0.5],[1,0.5]];portConstraint=eastwest;rotatable=0;whiteSpace=wrap;html=1;" vertex="1" parent="F978x5-Za8Gsg4M3BT2W-9">
          <mxGeometry y="90" width="140" height="30" as="geometry" />
        </mxCell>
        <mxCell id="F978x5-Za8Gsg4M3BT2W-20" style="edgeStyle=orthogonalEdgeStyle;rounded=0;orthogonalLoop=1;jettySize=auto;html=1;exitX=0.25;exitY=1;exitDx=0;exitDy=0;" edge="1" parent="1" source="F978x5-Za8Gsg4M3BT2W-14" target="F978x5-Za8Gsg4M3BT2W-8">
          <mxGeometry relative="1" as="geometry" />
        </mxCell>
        <mxCell id="F978x5-Za8Gsg4M3BT2W-21" style="edgeStyle=orthogonalEdgeStyle;rounded=0;orthogonalLoop=1;jettySize=auto;html=1;entryX=1;entryY=0.5;entryDx=0;entryDy=0;" edge="1" parent="1" source="F978x5-Za8Gsg4M3BT2W-14" target="F978x5-Za8Gsg4M3BT2W-12">
          <mxGeometry relative="1" as="geometry" />
        </mxCell>
        <mxCell id="F978x5-Za8Gsg4M3BT2W-29" value="onChanges" style="edgeLabel;html=1;align=center;verticalAlign=middle;resizable=0;points=[];" vertex="1" connectable="0" parent="F978x5-Za8Gsg4M3BT2W-21">
          <mxGeometry x="-0.4011" relative="1" as="geometry">
            <mxPoint as="offset" />
          </mxGeometry>
        </mxCell>
        <mxCell id="F978x5-Za8Gsg4M3BT2W-14" value="page controller" style="rounded=0;whiteSpace=wrap;html=1;" vertex="1" parent="1">
          <mxGeometry x="-1080" y="120" width="120" height="40" as="geometry" />
        </mxCell>
        <mxCell id="F978x5-Za8Gsg4M3BT2W-26" style="edgeStyle=orthogonalEdgeStyle;rounded=0;orthogonalLoop=1;jettySize=auto;html=1;entryX=1;entryY=0.5;entryDx=0;entryDy=0;" edge="1" parent="1" source="F978x5-Za8Gsg4M3BT2W-22" target="F978x5-Za8Gsg4M3BT2W-11">
          <mxGeometry relative="1" as="geometry" />
        </mxCell>
        <mxCell id="F978x5-Za8Gsg4M3BT2W-30" value="on Navigate" style="edgeLabel;html=1;align=center;verticalAlign=middle;resizable=0;points=[];" vertex="1" connectable="0" parent="F978x5-Za8Gsg4M3BT2W-26">
          <mxGeometry x="-0.6441" y="2" relative="1" as="geometry">
            <mxPoint as="offset" />
          </mxGeometry>
        </mxCell>
        <mxCell id="F978x5-Za8Gsg4M3BT2W-22" value="resolver" style="swimlane;fontStyle=0;childLayout=stackLayout;horizontal=1;startSize=30;horizontalStack=0;resizeParent=1;resizeParentMax=0;resizeLast=0;collapsible=1;marginBottom=0;whiteSpace=wrap;html=1;" vertex="1" parent="1">
          <mxGeometry x="-1270" y="50" width="140" height="60" as="geometry" />
        </mxCell>
        <mxCell id="F978x5-Za8Gsg4M3BT2W-23" value="return data" style="text;strokeColor=none;fillColor=none;align=left;verticalAlign=middle;spacingLeft=4;spacingRight=4;overflow=hidden;points=[[0,0.5],[1,0.5]];portConstraint=eastwest;rotatable=0;whiteSpace=wrap;html=1;" vertex="1" parent="F978x5-Za8Gsg4M3BT2W-22">
          <mxGeometry y="30" width="140" height="30" as="geometry" />
        </mxCell>
        <mxCell id="F978x5-Za8Gsg4M3BT2W-28" style="edgeStyle=orthogonalEdgeStyle;rounded=0;orthogonalLoop=1;jettySize=auto;html=1;entryX=0;entryY=0.75;entryDx=0;entryDy=0;" edge="1" parent="1" source="F978x5-Za8Gsg4M3BT2W-23" target="F978x5-Za8Gsg4M3BT2W-14">
          <mxGeometry relative="1" as="geometry" />
        </mxCell>
        <mxCell id="F978x5-Za8Gsg4M3BT2W-31" value="observable data" style="edgeLabel;html=1;align=center;verticalAlign=middle;resizable=0;points=[];" vertex="1" connectable="0" parent="F978x5-Za8Gsg4M3BT2W-28">
          <mxGeometry x="-0.2857" relative="1" as="geometry">
            <mxPoint x="25" y="-12" as="offset" />
          </mxGeometry>
        </mxCell>
      </root>
    </mxGraphModel>
  </diagram>
</mxfile>
